%TF.GenerationSoftware,KiCad,Pcbnew,9.0.6*%
%TF.CreationDate,2026-02-08T09:45:43+05:30*%
%TF.ProjectId,Hackthon_PCB,4861636b-7468-46f6-9e5f-5043422e6b69,rev?*%
%TF.SameCoordinates,Original*%
%TF.FileFunction,Legend,Top*%
%TF.FilePolarity,Positive*%
%FSLAX46Y46*%
G04 Gerber Fmt 4.6, Leading zero omitted, Abs format (unit mm)*
G04 Created by KiCad (PCBNEW 9.0.6) date 2026-02-08 09:45:43*
%MOMM*%
%LPD*%
G01*
G04 APERTURE LIST*
%ADD10C,0.200000*%
%ADD11C,0.150000*%
%ADD12C,0.120000*%
G04 APERTURE END LIST*
D10*
X176322054Y-115581504D02*
X176798244Y-115581504D01*
X176226816Y-115867219D02*
X176560149Y-114867219D01*
X176560149Y-114867219D02*
X176893482Y-115867219D01*
X177655387Y-115200552D02*
X177655387Y-115867219D01*
X177226816Y-115200552D02*
X177226816Y-115724361D01*
X177226816Y-115724361D02*
X177274435Y-115819600D01*
X177274435Y-115819600D02*
X177369673Y-115867219D01*
X177369673Y-115867219D02*
X177512530Y-115867219D01*
X177512530Y-115867219D02*
X177607768Y-115819600D01*
X177607768Y-115819600D02*
X177655387Y-115771980D01*
X177988721Y-115200552D02*
X178369673Y-115200552D01*
X178131578Y-114867219D02*
X178131578Y-115724361D01*
X178131578Y-115724361D02*
X178179197Y-115819600D01*
X178179197Y-115819600D02*
X178274435Y-115867219D01*
X178274435Y-115867219D02*
X178369673Y-115867219D01*
X178703007Y-115867219D02*
X178703007Y-114867219D01*
X179131578Y-115867219D02*
X179131578Y-115343409D01*
X179131578Y-115343409D02*
X179083959Y-115248171D01*
X179083959Y-115248171D02*
X178988721Y-115200552D01*
X178988721Y-115200552D02*
X178845864Y-115200552D01*
X178845864Y-115200552D02*
X178750626Y-115248171D01*
X178750626Y-115248171D02*
X178703007Y-115295790D01*
X179988721Y-115819600D02*
X179893483Y-115867219D01*
X179893483Y-115867219D02*
X179703007Y-115867219D01*
X179703007Y-115867219D02*
X179607769Y-115819600D01*
X179607769Y-115819600D02*
X179560150Y-115724361D01*
X179560150Y-115724361D02*
X179560150Y-115343409D01*
X179560150Y-115343409D02*
X179607769Y-115248171D01*
X179607769Y-115248171D02*
X179703007Y-115200552D01*
X179703007Y-115200552D02*
X179893483Y-115200552D01*
X179893483Y-115200552D02*
X179988721Y-115248171D01*
X179988721Y-115248171D02*
X180036340Y-115343409D01*
X180036340Y-115343409D02*
X180036340Y-115438647D01*
X180036340Y-115438647D02*
X179560150Y-115533885D01*
X180464912Y-115200552D02*
X180464912Y-115867219D01*
X180464912Y-115295790D02*
X180512531Y-115248171D01*
X180512531Y-115248171D02*
X180607769Y-115200552D01*
X180607769Y-115200552D02*
X180750626Y-115200552D01*
X180750626Y-115200552D02*
X180845864Y-115248171D01*
X180845864Y-115248171D02*
X180893483Y-115343409D01*
X180893483Y-115343409D02*
X180893483Y-115867219D01*
X181226817Y-115200552D02*
X181607769Y-115200552D01*
X181369674Y-114867219D02*
X181369674Y-115724361D01*
X181369674Y-115724361D02*
X181417293Y-115819600D01*
X181417293Y-115819600D02*
X181512531Y-115867219D01*
X181512531Y-115867219D02*
X181607769Y-115867219D01*
X181941103Y-115867219D02*
X181941103Y-115200552D01*
X181941103Y-114867219D02*
X181893484Y-114914838D01*
X181893484Y-114914838D02*
X181941103Y-114962457D01*
X181941103Y-114962457D02*
X181988722Y-114914838D01*
X181988722Y-114914838D02*
X181941103Y-114867219D01*
X181941103Y-114867219D02*
X181941103Y-114962457D01*
X182845864Y-115819600D02*
X182750626Y-115867219D01*
X182750626Y-115867219D02*
X182560150Y-115867219D01*
X182560150Y-115867219D02*
X182464912Y-115819600D01*
X182464912Y-115819600D02*
X182417293Y-115771980D01*
X182417293Y-115771980D02*
X182369674Y-115676742D01*
X182369674Y-115676742D02*
X182369674Y-115391028D01*
X182369674Y-115391028D02*
X182417293Y-115295790D01*
X182417293Y-115295790D02*
X182464912Y-115248171D01*
X182464912Y-115248171D02*
X182560150Y-115200552D01*
X182560150Y-115200552D02*
X182750626Y-115200552D01*
X182750626Y-115200552D02*
X182845864Y-115248171D01*
X183703007Y-115867219D02*
X183703007Y-115343409D01*
X183703007Y-115343409D02*
X183655388Y-115248171D01*
X183655388Y-115248171D02*
X183560150Y-115200552D01*
X183560150Y-115200552D02*
X183369674Y-115200552D01*
X183369674Y-115200552D02*
X183274436Y-115248171D01*
X183703007Y-115819600D02*
X183607769Y-115867219D01*
X183607769Y-115867219D02*
X183369674Y-115867219D01*
X183369674Y-115867219D02*
X183274436Y-115819600D01*
X183274436Y-115819600D02*
X183226817Y-115724361D01*
X183226817Y-115724361D02*
X183226817Y-115629123D01*
X183226817Y-115629123D02*
X183274436Y-115533885D01*
X183274436Y-115533885D02*
X183369674Y-115486266D01*
X183369674Y-115486266D02*
X183607769Y-115486266D01*
X183607769Y-115486266D02*
X183703007Y-115438647D01*
X184036341Y-115200552D02*
X184417293Y-115200552D01*
X184179198Y-114867219D02*
X184179198Y-115724361D01*
X184179198Y-115724361D02*
X184226817Y-115819600D01*
X184226817Y-115819600D02*
X184322055Y-115867219D01*
X184322055Y-115867219D02*
X184417293Y-115867219D01*
X184893484Y-115867219D02*
X184798246Y-115819600D01*
X184798246Y-115819600D02*
X184750627Y-115771980D01*
X184750627Y-115771980D02*
X184703008Y-115676742D01*
X184703008Y-115676742D02*
X184703008Y-115391028D01*
X184703008Y-115391028D02*
X184750627Y-115295790D01*
X184750627Y-115295790D02*
X184798246Y-115248171D01*
X184798246Y-115248171D02*
X184893484Y-115200552D01*
X184893484Y-115200552D02*
X185036341Y-115200552D01*
X185036341Y-115200552D02*
X185131579Y-115248171D01*
X185131579Y-115248171D02*
X185179198Y-115295790D01*
X185179198Y-115295790D02*
X185226817Y-115391028D01*
X185226817Y-115391028D02*
X185226817Y-115676742D01*
X185226817Y-115676742D02*
X185179198Y-115771980D01*
X185179198Y-115771980D02*
X185131579Y-115819600D01*
X185131579Y-115819600D02*
X185036341Y-115867219D01*
X185036341Y-115867219D02*
X184893484Y-115867219D01*
X185655389Y-115867219D02*
X185655389Y-115200552D01*
X185655389Y-115391028D02*
X185703008Y-115295790D01*
X185703008Y-115295790D02*
X185750627Y-115248171D01*
X185750627Y-115248171D02*
X185845865Y-115200552D01*
X185845865Y-115200552D02*
X185941103Y-115200552D01*
X90726816Y-113867219D02*
X91060149Y-114867219D01*
X91060149Y-114867219D02*
X91393482Y-113867219D01*
X91726816Y-114867219D02*
X91726816Y-114200552D01*
X91726816Y-113867219D02*
X91679197Y-113914838D01*
X91679197Y-113914838D02*
X91726816Y-113962457D01*
X91726816Y-113962457D02*
X91774435Y-113914838D01*
X91774435Y-113914838D02*
X91726816Y-113867219D01*
X91726816Y-113867219D02*
X91726816Y-113962457D01*
X92060149Y-114200552D02*
X92441101Y-114200552D01*
X92203006Y-113867219D02*
X92203006Y-114724361D01*
X92203006Y-114724361D02*
X92250625Y-114819600D01*
X92250625Y-114819600D02*
X92345863Y-114867219D01*
X92345863Y-114867219D02*
X92441101Y-114867219D01*
X93203006Y-114867219D02*
X93203006Y-114343409D01*
X93203006Y-114343409D02*
X93155387Y-114248171D01*
X93155387Y-114248171D02*
X93060149Y-114200552D01*
X93060149Y-114200552D02*
X92869673Y-114200552D01*
X92869673Y-114200552D02*
X92774435Y-114248171D01*
X93203006Y-114819600D02*
X93107768Y-114867219D01*
X93107768Y-114867219D02*
X92869673Y-114867219D01*
X92869673Y-114867219D02*
X92774435Y-114819600D01*
X92774435Y-114819600D02*
X92726816Y-114724361D01*
X92726816Y-114724361D02*
X92726816Y-114629123D01*
X92726816Y-114629123D02*
X92774435Y-114533885D01*
X92774435Y-114533885D02*
X92869673Y-114486266D01*
X92869673Y-114486266D02*
X93107768Y-114486266D01*
X93107768Y-114486266D02*
X93203006Y-114438647D01*
X93822054Y-114867219D02*
X93726816Y-114819600D01*
X93726816Y-114819600D02*
X93679197Y-114724361D01*
X93679197Y-114724361D02*
X93679197Y-113867219D01*
X94964912Y-114867219D02*
X94964912Y-113867219D01*
X94964912Y-113867219D02*
X95203007Y-113867219D01*
X95203007Y-113867219D02*
X95345864Y-113914838D01*
X95345864Y-113914838D02*
X95441102Y-114010076D01*
X95441102Y-114010076D02*
X95488721Y-114105314D01*
X95488721Y-114105314D02*
X95536340Y-114295790D01*
X95536340Y-114295790D02*
X95536340Y-114438647D01*
X95536340Y-114438647D02*
X95488721Y-114629123D01*
X95488721Y-114629123D02*
X95441102Y-114724361D01*
X95441102Y-114724361D02*
X95345864Y-114819600D01*
X95345864Y-114819600D02*
X95203007Y-114867219D01*
X95203007Y-114867219D02*
X94964912Y-114867219D01*
X96345864Y-114819600D02*
X96250626Y-114867219D01*
X96250626Y-114867219D02*
X96060150Y-114867219D01*
X96060150Y-114867219D02*
X95964912Y-114819600D01*
X95964912Y-114819600D02*
X95917293Y-114724361D01*
X95917293Y-114724361D02*
X95917293Y-114343409D01*
X95917293Y-114343409D02*
X95964912Y-114248171D01*
X95964912Y-114248171D02*
X96060150Y-114200552D01*
X96060150Y-114200552D02*
X96250626Y-114200552D01*
X96250626Y-114200552D02*
X96345864Y-114248171D01*
X96345864Y-114248171D02*
X96393483Y-114343409D01*
X96393483Y-114343409D02*
X96393483Y-114438647D01*
X96393483Y-114438647D02*
X95917293Y-114533885D01*
X96679198Y-114200552D02*
X97060150Y-114200552D01*
X96822055Y-113867219D02*
X96822055Y-114724361D01*
X96822055Y-114724361D02*
X96869674Y-114819600D01*
X96869674Y-114819600D02*
X96964912Y-114867219D01*
X96964912Y-114867219D02*
X97060150Y-114867219D01*
X97774436Y-114819600D02*
X97679198Y-114867219D01*
X97679198Y-114867219D02*
X97488722Y-114867219D01*
X97488722Y-114867219D02*
X97393484Y-114819600D01*
X97393484Y-114819600D02*
X97345865Y-114724361D01*
X97345865Y-114724361D02*
X97345865Y-114343409D01*
X97345865Y-114343409D02*
X97393484Y-114248171D01*
X97393484Y-114248171D02*
X97488722Y-114200552D01*
X97488722Y-114200552D02*
X97679198Y-114200552D01*
X97679198Y-114200552D02*
X97774436Y-114248171D01*
X97774436Y-114248171D02*
X97822055Y-114343409D01*
X97822055Y-114343409D02*
X97822055Y-114438647D01*
X97822055Y-114438647D02*
X97345865Y-114533885D01*
X98679198Y-114819600D02*
X98583960Y-114867219D01*
X98583960Y-114867219D02*
X98393484Y-114867219D01*
X98393484Y-114867219D02*
X98298246Y-114819600D01*
X98298246Y-114819600D02*
X98250627Y-114771980D01*
X98250627Y-114771980D02*
X98203008Y-114676742D01*
X98203008Y-114676742D02*
X98203008Y-114391028D01*
X98203008Y-114391028D02*
X98250627Y-114295790D01*
X98250627Y-114295790D02*
X98298246Y-114248171D01*
X98298246Y-114248171D02*
X98393484Y-114200552D01*
X98393484Y-114200552D02*
X98583960Y-114200552D01*
X98583960Y-114200552D02*
X98679198Y-114248171D01*
X98964913Y-114200552D02*
X99345865Y-114200552D01*
X99107770Y-113867219D02*
X99107770Y-114724361D01*
X99107770Y-114724361D02*
X99155389Y-114819600D01*
X99155389Y-114819600D02*
X99250627Y-114867219D01*
X99250627Y-114867219D02*
X99345865Y-114867219D01*
X99822056Y-114867219D02*
X99726818Y-114819600D01*
X99726818Y-114819600D02*
X99679199Y-114771980D01*
X99679199Y-114771980D02*
X99631580Y-114676742D01*
X99631580Y-114676742D02*
X99631580Y-114391028D01*
X99631580Y-114391028D02*
X99679199Y-114295790D01*
X99679199Y-114295790D02*
X99726818Y-114248171D01*
X99726818Y-114248171D02*
X99822056Y-114200552D01*
X99822056Y-114200552D02*
X99964913Y-114200552D01*
X99964913Y-114200552D02*
X100060151Y-114248171D01*
X100060151Y-114248171D02*
X100107770Y-114295790D01*
X100107770Y-114295790D02*
X100155389Y-114391028D01*
X100155389Y-114391028D02*
X100155389Y-114676742D01*
X100155389Y-114676742D02*
X100107770Y-114771980D01*
X100107770Y-114771980D02*
X100060151Y-114819600D01*
X100060151Y-114819600D02*
X99964913Y-114867219D01*
X99964913Y-114867219D02*
X99822056Y-114867219D01*
X100583961Y-114867219D02*
X100583961Y-114200552D01*
X100583961Y-114391028D02*
X100631580Y-114295790D01*
X100631580Y-114295790D02*
X100679199Y-114248171D01*
X100679199Y-114248171D02*
X100774437Y-114200552D01*
X100774437Y-114200552D02*
X100869675Y-114200552D01*
D11*
X72738095Y-80704819D02*
X72738095Y-81514342D01*
X72738095Y-81514342D02*
X72785714Y-81609580D01*
X72785714Y-81609580D02*
X72833333Y-81657200D01*
X72833333Y-81657200D02*
X72928571Y-81704819D01*
X72928571Y-81704819D02*
X73119047Y-81704819D01*
X73119047Y-81704819D02*
X73214285Y-81657200D01*
X73214285Y-81657200D02*
X73261904Y-81609580D01*
X73261904Y-81609580D02*
X73309523Y-81514342D01*
X73309523Y-81514342D02*
X73309523Y-80704819D01*
X74261904Y-80704819D02*
X73785714Y-80704819D01*
X73785714Y-80704819D02*
X73738095Y-81181009D01*
X73738095Y-81181009D02*
X73785714Y-81133390D01*
X73785714Y-81133390D02*
X73880952Y-81085771D01*
X73880952Y-81085771D02*
X74119047Y-81085771D01*
X74119047Y-81085771D02*
X74214285Y-81133390D01*
X74214285Y-81133390D02*
X74261904Y-81181009D01*
X74261904Y-81181009D02*
X74309523Y-81276247D01*
X74309523Y-81276247D02*
X74309523Y-81514342D01*
X74309523Y-81514342D02*
X74261904Y-81609580D01*
X74261904Y-81609580D02*
X74214285Y-81657200D01*
X74214285Y-81657200D02*
X74119047Y-81704819D01*
X74119047Y-81704819D02*
X73880952Y-81704819D01*
X73880952Y-81704819D02*
X73785714Y-81657200D01*
X73785714Y-81657200D02*
X73738095Y-81609580D01*
X197653819Y-82131904D02*
X198463342Y-82131904D01*
X198463342Y-82131904D02*
X198558580Y-82084285D01*
X198558580Y-82084285D02*
X198606200Y-82036666D01*
X198606200Y-82036666D02*
X198653819Y-81941428D01*
X198653819Y-81941428D02*
X198653819Y-81750952D01*
X198653819Y-81750952D02*
X198606200Y-81655714D01*
X198606200Y-81655714D02*
X198558580Y-81608095D01*
X198558580Y-81608095D02*
X198463342Y-81560476D01*
X198463342Y-81560476D02*
X197653819Y-81560476D01*
X197987152Y-80655714D02*
X198653819Y-80655714D01*
X197606200Y-80893809D02*
X198320485Y-81131904D01*
X198320485Y-81131904D02*
X198320485Y-80512857D01*
X179547095Y-120869819D02*
X179547095Y-121679342D01*
X179547095Y-121679342D02*
X179594714Y-121774580D01*
X179594714Y-121774580D02*
X179642333Y-121822200D01*
X179642333Y-121822200D02*
X179737571Y-121869819D01*
X179737571Y-121869819D02*
X179928047Y-121869819D01*
X179928047Y-121869819D02*
X180023285Y-121822200D01*
X180023285Y-121822200D02*
X180070904Y-121774580D01*
X180070904Y-121774580D02*
X180118523Y-121679342D01*
X180118523Y-121679342D02*
X180118523Y-120869819D01*
X180499476Y-120869819D02*
X181118523Y-120869819D01*
X181118523Y-120869819D02*
X180785190Y-121250771D01*
X180785190Y-121250771D02*
X180928047Y-121250771D01*
X180928047Y-121250771D02*
X181023285Y-121298390D01*
X181023285Y-121298390D02*
X181070904Y-121346009D01*
X181070904Y-121346009D02*
X181118523Y-121441247D01*
X181118523Y-121441247D02*
X181118523Y-121679342D01*
X181118523Y-121679342D02*
X181070904Y-121774580D01*
X181070904Y-121774580D02*
X181023285Y-121822200D01*
X181023285Y-121822200D02*
X180928047Y-121869819D01*
X180928047Y-121869819D02*
X180642333Y-121869819D01*
X180642333Y-121869819D02*
X180547095Y-121822200D01*
X180547095Y-121822200D02*
X180499476Y-121774580D01*
X109914819Y-99201904D02*
X110724342Y-99201904D01*
X110724342Y-99201904D02*
X110819580Y-99154285D01*
X110819580Y-99154285D02*
X110867200Y-99106666D01*
X110867200Y-99106666D02*
X110914819Y-99011428D01*
X110914819Y-99011428D02*
X110914819Y-98820952D01*
X110914819Y-98820952D02*
X110867200Y-98725714D01*
X110867200Y-98725714D02*
X110819580Y-98678095D01*
X110819580Y-98678095D02*
X110724342Y-98630476D01*
X110724342Y-98630476D02*
X109914819Y-98630476D01*
X110010057Y-98201904D02*
X109962438Y-98154285D01*
X109962438Y-98154285D02*
X109914819Y-98059047D01*
X109914819Y-98059047D02*
X109914819Y-97820952D01*
X109914819Y-97820952D02*
X109962438Y-97725714D01*
X109962438Y-97725714D02*
X110010057Y-97678095D01*
X110010057Y-97678095D02*
X110105295Y-97630476D01*
X110105295Y-97630476D02*
X110200533Y-97630476D01*
X110200533Y-97630476D02*
X110343390Y-97678095D01*
X110343390Y-97678095D02*
X110914819Y-98249523D01*
X110914819Y-98249523D02*
X110914819Y-97630476D01*
X90874819Y-79761904D02*
X91684342Y-79761904D01*
X91684342Y-79761904D02*
X91779580Y-79714285D01*
X91779580Y-79714285D02*
X91827200Y-79666666D01*
X91827200Y-79666666D02*
X91874819Y-79571428D01*
X91874819Y-79571428D02*
X91874819Y-79380952D01*
X91874819Y-79380952D02*
X91827200Y-79285714D01*
X91827200Y-79285714D02*
X91779580Y-79238095D01*
X91779580Y-79238095D02*
X91684342Y-79190476D01*
X91684342Y-79190476D02*
X90874819Y-79190476D01*
X91874819Y-78190476D02*
X91874819Y-78761904D01*
X91874819Y-78476190D02*
X90874819Y-78476190D01*
X90874819Y-78476190D02*
X91017676Y-78571428D01*
X91017676Y-78571428D02*
X91112914Y-78666666D01*
X91112914Y-78666666D02*
X91160533Y-78761904D01*
X195365667Y-123737200D02*
X195508524Y-123784819D01*
X195508524Y-123784819D02*
X195746619Y-123784819D01*
X195746619Y-123784819D02*
X195841857Y-123737200D01*
X195841857Y-123737200D02*
X195889476Y-123689580D01*
X195889476Y-123689580D02*
X195937095Y-123594342D01*
X195937095Y-123594342D02*
X195937095Y-123499104D01*
X195937095Y-123499104D02*
X195889476Y-123403866D01*
X195889476Y-123403866D02*
X195841857Y-123356247D01*
X195841857Y-123356247D02*
X195746619Y-123308628D01*
X195746619Y-123308628D02*
X195556143Y-123261009D01*
X195556143Y-123261009D02*
X195460905Y-123213390D01*
X195460905Y-123213390D02*
X195413286Y-123165771D01*
X195413286Y-123165771D02*
X195365667Y-123070533D01*
X195365667Y-123070533D02*
X195365667Y-122975295D01*
X195365667Y-122975295D02*
X195413286Y-122880057D01*
X195413286Y-122880057D02*
X195460905Y-122832438D01*
X195460905Y-122832438D02*
X195556143Y-122784819D01*
X195556143Y-122784819D02*
X195794238Y-122784819D01*
X195794238Y-122784819D02*
X195937095Y-122832438D01*
X196270429Y-122784819D02*
X196508524Y-123784819D01*
X196508524Y-123784819D02*
X196699000Y-123070533D01*
X196699000Y-123070533D02*
X196889476Y-123784819D01*
X196889476Y-123784819D02*
X197127572Y-122784819D01*
X198032333Y-123784819D02*
X197460905Y-123784819D01*
X197746619Y-123784819D02*
X197746619Y-122784819D01*
X197746619Y-122784819D02*
X197651381Y-122927676D01*
X197651381Y-122927676D02*
X197556143Y-123022914D01*
X197556143Y-123022914D02*
X197460905Y-123070533D01*
X202323819Y-111041666D02*
X201847628Y-111374999D01*
X202323819Y-111613094D02*
X201323819Y-111613094D01*
X201323819Y-111613094D02*
X201323819Y-111232142D01*
X201323819Y-111232142D02*
X201371438Y-111136904D01*
X201371438Y-111136904D02*
X201419057Y-111089285D01*
X201419057Y-111089285D02*
X201514295Y-111041666D01*
X201514295Y-111041666D02*
X201657152Y-111041666D01*
X201657152Y-111041666D02*
X201752390Y-111089285D01*
X201752390Y-111089285D02*
X201800009Y-111136904D01*
X201800009Y-111136904D02*
X201847628Y-111232142D01*
X201847628Y-111232142D02*
X201847628Y-111613094D01*
X202323819Y-110089285D02*
X202323819Y-110660713D01*
X202323819Y-110374999D02*
X201323819Y-110374999D01*
X201323819Y-110374999D02*
X201466676Y-110470237D01*
X201466676Y-110470237D02*
X201561914Y-110565475D01*
X201561914Y-110565475D02*
X201609533Y-110660713D01*
X114431009Y-75380952D02*
X114478628Y-75238095D01*
X114478628Y-75238095D02*
X114526247Y-75190476D01*
X114526247Y-75190476D02*
X114621485Y-75142857D01*
X114621485Y-75142857D02*
X114764342Y-75142857D01*
X114764342Y-75142857D02*
X114859580Y-75190476D01*
X114859580Y-75190476D02*
X114907200Y-75238095D01*
X114907200Y-75238095D02*
X114954819Y-75333333D01*
X114954819Y-75333333D02*
X114954819Y-75714285D01*
X114954819Y-75714285D02*
X113954819Y-75714285D01*
X113954819Y-75714285D02*
X113954819Y-75380952D01*
X113954819Y-75380952D02*
X114002438Y-75285714D01*
X114002438Y-75285714D02*
X114050057Y-75238095D01*
X114050057Y-75238095D02*
X114145295Y-75190476D01*
X114145295Y-75190476D02*
X114240533Y-75190476D01*
X114240533Y-75190476D02*
X114335771Y-75238095D01*
X114335771Y-75238095D02*
X114383390Y-75285714D01*
X114383390Y-75285714D02*
X114431009Y-75380952D01*
X114431009Y-75380952D02*
X114431009Y-75714285D01*
X113954819Y-74809523D02*
X113954819Y-74142857D01*
X113954819Y-74142857D02*
X114954819Y-74809523D01*
X114954819Y-74809523D02*
X114954819Y-74142857D01*
X114954819Y-73238095D02*
X114954819Y-73809523D01*
X114954819Y-73523809D02*
X113954819Y-73523809D01*
X113954819Y-73523809D02*
X114097676Y-73619047D01*
X114097676Y-73619047D02*
X114192914Y-73714285D01*
X114192914Y-73714285D02*
X114240533Y-73809523D01*
X119613866Y-78570951D02*
X119613866Y-77809047D01*
X119994819Y-78189999D02*
X119232914Y-78189999D01*
X157449714Y-100929104D02*
X157925904Y-100929104D01*
X157354476Y-101214819D02*
X157687809Y-100214819D01*
X157687809Y-100214819D02*
X158021142Y-101214819D01*
X158306857Y-100310057D02*
X158354476Y-100262438D01*
X158354476Y-100262438D02*
X158449714Y-100214819D01*
X158449714Y-100214819D02*
X158687809Y-100214819D01*
X158687809Y-100214819D02*
X158783047Y-100262438D01*
X158783047Y-100262438D02*
X158830666Y-100310057D01*
X158830666Y-100310057D02*
X158878285Y-100405295D01*
X158878285Y-100405295D02*
X158878285Y-100500533D01*
X158878285Y-100500533D02*
X158830666Y-100643390D01*
X158830666Y-100643390D02*
X158259238Y-101214819D01*
X158259238Y-101214819D02*
X158878285Y-101214819D01*
X150845667Y-81164819D02*
X151512333Y-82164819D01*
X151512333Y-81164819D02*
X150845667Y-82164819D01*
X153719000Y-88038628D02*
X153719000Y-88514819D01*
X153385667Y-87514819D02*
X153719000Y-88038628D01*
X153719000Y-88038628D02*
X154052333Y-87514819D01*
X148305667Y-88784819D02*
X148972333Y-88784819D01*
X148972333Y-88784819D02*
X148305667Y-89784819D01*
X148305667Y-89784819D02*
X148972333Y-89784819D01*
X116420714Y-91549104D02*
X116896904Y-91549104D01*
X116325476Y-91834819D02*
X116658809Y-90834819D01*
X116658809Y-90834819D02*
X116992142Y-91834819D01*
X117849285Y-91834819D02*
X117277857Y-91834819D01*
X117563571Y-91834819D02*
X117563571Y-90834819D01*
X117563571Y-90834819D02*
X117468333Y-90977676D01*
X117468333Y-90977676D02*
X117373095Y-91072914D01*
X117373095Y-91072914D02*
X117277857Y-91120533D01*
X123786667Y-109884819D02*
X124453333Y-110884819D01*
X124453333Y-109884819D02*
X123786667Y-110884819D01*
X121580000Y-104058628D02*
X121580000Y-104534819D01*
X121246667Y-103534819D02*
X121580000Y-104058628D01*
X121580000Y-104058628D02*
X121913333Y-103534819D01*
X126326667Y-102264819D02*
X126993333Y-102264819D01*
X126993333Y-102264819D02*
X126326667Y-103264819D01*
X126326667Y-103264819D02*
X126993333Y-103264819D01*
D12*
%TO.C,U5*%
X75960000Y-76700000D02*
X76180000Y-76700000D01*
X70380000Y-80360000D02*
X73460000Y-80360000D01*
X70300000Y-76700000D02*
X70760000Y-76700000D01*
X70300000Y-76700000D02*
X70300000Y-77900000D01*
X70760000Y-76700000D02*
G75*
G02*
X75960000Y-76700000I2600000J-1100000D01*
G01*
%TO.C,U4*%
X202749000Y-83830000D02*
X202749000Y-84050000D01*
X199089000Y-78250000D02*
X199089000Y-81330000D01*
X202749000Y-78170000D02*
X202749000Y-78630000D01*
X202749000Y-78170000D02*
X201549000Y-78170000D01*
X202749000Y-78630000D02*
G75*
G02*
X202749000Y-83830000I-1100000J-2600000D01*
G01*
%TO.C,U3*%
X168179000Y-71570000D02*
X193579000Y-71570000D01*
X168179000Y-110490000D02*
X168179000Y-71570000D01*
X193579000Y-71570000D02*
X193579000Y-110490000D01*
X193579000Y-110490000D02*
X168179000Y-110490000D01*
%TO.C,U2*%
X70680000Y-111140000D02*
X70680000Y-85740000D01*
X109600000Y-111140000D02*
X70680000Y-111140000D01*
X70680000Y-85740000D02*
X109600000Y-85740000D01*
X109600000Y-85740000D02*
X109600000Y-111140000D01*
%TO.C,U1*%
X104860000Y-75120000D02*
X104860000Y-80880000D01*
X92600000Y-75120000D02*
X104860000Y-75120000D01*
X92600000Y-80870000D02*
X92600000Y-75130000D01*
X104860000Y-80880000D02*
X92610000Y-80880000D01*
X92320000Y-81160000D02*
X92320000Y-79550000D01*
X92320000Y-81160000D02*
X94320000Y-81160000D01*
%TO.C,SW1*%
X200199000Y-119830000D02*
X200199000Y-118330000D01*
X198949000Y-115830000D02*
X194449000Y-115830000D01*
X194449000Y-122330000D02*
X198949000Y-122330000D01*
X193199000Y-118330000D02*
X193199000Y-119830000D01*
%TO.C,R1*%
X199129000Y-110342133D02*
G75*
G02*
X200769000Y-110342133I820000J417133D01*
G01*
%TO.C,BZ1*%
X123100000Y-82000000D02*
G75*
G02*
X110900000Y-82000000I-6100000J0D01*
G01*
X110900000Y-82000000D02*
G75*
G02*
X123100000Y-82000000I6100000J0D01*
G01*
%TO.C,A2*%
X160069000Y-99490000D02*
X144829000Y-99490000D01*
X144829000Y-99490000D02*
X144829000Y-79170000D01*
X144829000Y-79170000D02*
X160069000Y-79170000D01*
X160069000Y-79170000D02*
X160069000Y-99490000D01*
X154989000Y-82980000D02*
X148639000Y-82980000D01*
X148639000Y-82980000D02*
X149909000Y-84250000D01*
X148639000Y-82980000D02*
X149909000Y-81710000D01*
X154989000Y-86790000D02*
X154989000Y-91870000D01*
X154989000Y-91870000D02*
X156259000Y-90600000D01*
X156259000Y-90600000D02*
X154989000Y-91870000D01*
X154989000Y-91870000D02*
X153719000Y-90600000D01*
X150435051Y-89330000D02*
G75*
G02*
X146842949Y-89330000I-1796051J0D01*
G01*
X146842949Y-89330000D02*
G75*
G02*
X150435051Y-89330000I1796051J0D01*
G01*
%TO.C,A1*%
X115230000Y-92650000D02*
X130470000Y-92650000D01*
X130470000Y-92650000D02*
X130470000Y-112970000D01*
X130470000Y-112970000D02*
X115230000Y-112970000D01*
X115230000Y-112970000D02*
X115230000Y-92650000D01*
X120310000Y-109160000D02*
X126660000Y-109160000D01*
X126660000Y-109160000D02*
X125390000Y-107890000D01*
X126660000Y-109160000D02*
X125390000Y-110430000D01*
X120310000Y-105350000D02*
X120310000Y-100270000D01*
X120310000Y-100270000D02*
X119040000Y-101540000D01*
X119040000Y-101540000D02*
X120310000Y-100270000D01*
X120310000Y-100270000D02*
X121580000Y-101540000D01*
X128456051Y-102810000D02*
G75*
G02*
X124863949Y-102810000I-1796051J0D01*
G01*
X124863949Y-102810000D02*
G75*
G02*
X128456051Y-102810000I1796051J0D01*
G01*
%TD*%
M02*
