%TF.GenerationSoftware,KiCad,Pcbnew,9.0.6*%
%TF.CreationDate,2026-02-08T09:45:43+05:30*%
%TF.ProjectId,Hackthon_PCB,4861636b-7468-46f6-9e5f-5043422e6b69,rev?*%
%TF.SameCoordinates,Original*%
%TF.FileFunction,Copper,L2,Bot*%
%TF.FilePolarity,Positive*%
%FSLAX46Y46*%
G04 Gerber Fmt 4.6, Leading zero omitted, Abs format (unit mm)*
G04 Created by KiCad (PCBNEW 9.0.6) date 2026-02-08 09:45:43*
%MOMM*%
%LPD*%
G01*
G04 APERTURE LIST*
G04 Aperture macros list*
%AMRoundRect*
0 Rectangle with rounded corners*
0 $1 Rounding radius*
0 $2 $3 $4 $5 $6 $7 $8 $9 X,Y pos of 4 corners*
0 Add a 4 corners polygon primitive as box body*
4,1,4,$2,$3,$4,$5,$6,$7,$8,$9,$2,$3,0*
0 Add four circle primitives for the rounded corners*
1,1,$1+$1,$2,$3*
1,1,$1+$1,$4,$5*
1,1,$1+$1,$6,$7*
1,1,$1+$1,$8,$9*
0 Add four rect primitives between the rounded corners*
20,1,$1+$1,$2,$3,$4,$5,0*
20,1,$1+$1,$4,$5,$6,$7,0*
20,1,$1+$1,$6,$7,$8,$9,0*
20,1,$1+$1,$8,$9,$2,$3,0*%
G04 Aperture macros list end*
%TA.AperFunction,ComponentPad*%
%ADD10RoundRect,0.248400X0.651600X0.651600X-0.651600X0.651600X-0.651600X-0.651600X0.651600X-0.651600X0*%
%TD*%
%TA.AperFunction,ComponentPad*%
%ADD11C,1.800000*%
%TD*%
%TA.AperFunction,ComponentPad*%
%ADD12RoundRect,0.248400X0.651600X-0.651600X0.651600X0.651600X-0.651600X0.651600X-0.651600X-0.651600X0*%
%TD*%
%TA.AperFunction,ComponentPad*%
%ADD13R,1.500000X1.500000*%
%TD*%
%TA.AperFunction,ComponentPad*%
%ADD14C,1.500000*%
%TD*%
%TA.AperFunction,ComponentPad*%
%ADD15C,2.000000*%
%TD*%
%TA.AperFunction,ComponentPad*%
%ADD16C,1.400000*%
%TD*%
%TA.AperFunction,ComponentPad*%
%ADD17R,2.000000X2.000000*%
%TD*%
%TA.AperFunction,ComponentPad*%
%ADD18R,1.524000X1.524000*%
%TD*%
%TA.AperFunction,ComponentPad*%
%ADD19C,1.524000*%
%TD*%
%TA.AperFunction,ViaPad*%
%ADD20C,0.600000*%
%TD*%
%TA.AperFunction,Conductor*%
%ADD21C,0.200000*%
%TD*%
G04 APERTURE END LIST*
D10*
%TO.P,U5,1,GND*%
%TO.N,Net-(A1-GND)*%
X76000000Y-79000000D03*
D11*
%TO.P,U5,2,Vs*%
%TO.N,Net-(A1-VCC)*%
X73460000Y-79000000D03*
%TO.P,U5,3,OUT*%
%TO.N,Net-(U2-IO4)*%
X70920000Y-79000000D03*
%TD*%
D12*
%TO.P,U4,1,OUT*%
%TO.N,Net-(U3-IO4)*%
X200449000Y-83870000D03*
D11*
%TO.P,U4,2,GND*%
%TO.N,Net-(A2-GND)*%
X200449000Y-81330000D03*
%TO.P,U4,3,Vs*%
%TO.N,Net-(A2-3.3V)*%
X200449000Y-78790000D03*
%TD*%
D13*
%TO.P,U3,1,GND*%
%TO.N,Net-(A2-GND)*%
X169449000Y-73250000D03*
D14*
%TO.P,U3,2,3V3*%
%TO.N,Net-(A2-3.3V)*%
X169449000Y-75790000D03*
%TO.P,U3,3,3V3*%
X169449000Y-78330000D03*
%TO.P,U3,4,IO2*%
%TO.N,Net-(A2-SCK)*%
X169449000Y-80870000D03*
%TO.P,U3,5,IO3*%
%TO.N,Net-(A2-SDA)*%
X169449000Y-83410000D03*
%TO.P,U3,6,GND*%
%TO.N,Net-(A2-GND)*%
X169449000Y-85950000D03*
%TO.P,U3,7,RST*%
%TO.N,unconnected-(U3-RST-Pad7)*%
X169449000Y-88490000D03*
%TO.P,U3,8,GND*%
%TO.N,Net-(A2-GND)*%
X169449000Y-91030000D03*
%TO.P,U3,9,IO0*%
%TO.N,Net-(A2-MISO)*%
X169449000Y-93570000D03*
%TO.P,U3,10,IO1*%
%TO.N,Net-(A2-MOSI)*%
X169449000Y-96110000D03*
%TO.P,U3,11,IO10*%
%TO.N,unconnected-(U3-IO10-Pad11)*%
X169449000Y-98650000D03*
%TO.P,U3,12,GND*%
%TO.N,Net-(A2-GND)*%
X169449000Y-101190000D03*
%TO.P,U3,13,5V*%
%TO.N,Net-(U3-5V-Pad13)*%
X169449000Y-103730000D03*
%TO.P,U3,14,5V*%
X169449000Y-106270000D03*
%TO.P,U3,15,GND*%
%TO.N,Net-(A2-GND)*%
X169449000Y-108810000D03*
%TO.P,U3,16,GND*%
X192309000Y-108810000D03*
%TO.P,U3,17,IO19*%
%TO.N,unconnected-(U3-IO19-Pad17)*%
X192309000Y-106270000D03*
%TO.P,U3,18,IO18*%
%TO.N,unconnected-(U3-IO18-Pad18)*%
X192309000Y-103730000D03*
%TO.P,U3,19,GND*%
%TO.N,Net-(A2-GND)*%
X192309000Y-101190000D03*
%TO.P,U3,20,IO4*%
%TO.N,Net-(U3-IO4)*%
X192309000Y-98650000D03*
%TO.P,U3,21,IO5*%
%TO.N,Net-(U3-IO5)*%
X192309000Y-96110000D03*
%TO.P,U3,22,IO6*%
%TO.N,unconnected-(U3-IO6-Pad22)*%
X192309000Y-93570000D03*
%TO.P,U3,23,IO7*%
%TO.N,unconnected-(U3-IO7-Pad23)*%
X192309000Y-91030000D03*
%TO.P,U3,24,GND*%
%TO.N,Net-(A2-GND)*%
X192309000Y-88490000D03*
%TO.P,U3,25,IO8*%
%TO.N,unconnected-(U3-IO8-Pad25)*%
X192309000Y-85950000D03*
%TO.P,U3,26,IO9*%
%TO.N,unconnected-(U3-IO9-Pad26)*%
X192309000Y-83410000D03*
%TO.P,U3,27,GND*%
%TO.N,Net-(A2-GND)*%
X192309000Y-80870000D03*
%TO.P,U3,28,RX*%
%TO.N,unconnected-(U3-RX-Pad28)*%
X192309000Y-78330000D03*
%TO.P,U3,29,TX*%
%TO.N,unconnected-(U3-TX-Pad29)*%
X192309000Y-75790000D03*
%TO.P,U3,30,GND*%
%TO.N,Net-(A2-GND)*%
X192309000Y-73250000D03*
%TD*%
D13*
%TO.P,U2,1,GND*%
%TO.N,Net-(A1-GND)*%
X72360000Y-109870000D03*
D14*
%TO.P,U2,2,3V3*%
%TO.N,Net-(A1-VCC)*%
X74900000Y-109870000D03*
%TO.P,U2,3,3V3*%
X77440000Y-109870000D03*
%TO.P,U2,4,IO2*%
%TO.N,unconnected-(U2-IO2-Pad4)*%
X79980000Y-109870000D03*
%TO.P,U2,5,IO3*%
%TO.N,unconnected-(U2-IO3-Pad5)*%
X82520000Y-109870000D03*
%TO.P,U2,6,GND*%
%TO.N,Net-(A1-GND)*%
X85060000Y-109870000D03*
%TO.P,U2,7,RST*%
%TO.N,unconnected-(U2-RST-Pad7)*%
X87600000Y-109870000D03*
%TO.P,U2,8,GND*%
%TO.N,Net-(A1-GND)*%
X90140000Y-109870000D03*
%TO.P,U2,9,IO0*%
%TO.N,unconnected-(U2-IO0-Pad9)*%
X92680000Y-109870000D03*
%TO.P,U2,10,IO1*%
%TO.N,unconnected-(U2-IO1-Pad10)*%
X95220000Y-109870000D03*
%TO.P,U2,11,IO10*%
%TO.N,unconnected-(U2-IO10-Pad11)*%
X97760000Y-109870000D03*
%TO.P,U2,12,GND*%
%TO.N,Net-(A1-GND)*%
X100300000Y-109870000D03*
%TO.P,U2,13,5V*%
%TO.N,Net-(U2-5V-Pad13)*%
X102840000Y-109870000D03*
%TO.P,U2,14,5V*%
X105380000Y-109870000D03*
%TO.P,U2,15,GND*%
%TO.N,Net-(A1-GND)*%
X107920000Y-109870000D03*
%TO.P,U2,16,GND*%
X107920000Y-87010000D03*
%TO.P,U2,17,IO19*%
%TO.N,unconnected-(U2-IO19-Pad17)*%
X105380000Y-87010000D03*
%TO.P,U2,18,IO18*%
%TO.N,unconnected-(U2-IO18-Pad18)*%
X102840000Y-87010000D03*
%TO.P,U2,19,GND*%
%TO.N,Net-(A1-GND)*%
X100300000Y-87010000D03*
%TO.P,U2,20,IO4*%
%TO.N,Net-(U2-IO4)*%
X97760000Y-87010000D03*
%TO.P,U2,21,IO5*%
%TO.N,Net-(BZ1-+)*%
X95220000Y-87010000D03*
%TO.P,U2,22,IO6*%
%TO.N,Net-(A1-SCL)*%
X92680000Y-87010000D03*
%TO.P,U2,23,IO7*%
%TO.N,Net-(A1-SDA)*%
X90140000Y-87010000D03*
%TO.P,U2,24,GND*%
%TO.N,Net-(A1-GND)*%
X87600000Y-87010000D03*
%TO.P,U2,25,IO8*%
%TO.N,unconnected-(U2-IO8-Pad25)*%
X85060000Y-87010000D03*
%TO.P,U2,26,IO9*%
%TO.N,Net-(U1-DATA)*%
X82520000Y-87010000D03*
%TO.P,U2,27,GND*%
%TO.N,Net-(A1-GND)*%
X79980000Y-87010000D03*
%TO.P,U2,28,RX*%
%TO.N,unconnected-(U2-RX-Pad28)*%
X77440000Y-87010000D03*
%TO.P,U2,29,TX*%
%TO.N,unconnected-(U2-TX-Pad29)*%
X74900000Y-87010000D03*
%TO.P,U2,30,GND*%
%TO.N,Net-(A1-GND)*%
X72360000Y-87010000D03*
%TD*%
%TO.P,U1,4,GND*%
%TO.N,Net-(A1-GND)*%
X102540000Y-78000000D03*
%TO.P,U1,3,NC*%
%TO.N,unconnected-(U1-NC-Pad3)*%
X100000000Y-78000000D03*
%TO.P,U1,2,DATA*%
%TO.N,Net-(U1-DATA)*%
X97460000Y-78000000D03*
D13*
%TO.P,U1,1,VDD*%
%TO.N,Net-(A1-VCC)*%
X94920000Y-78000000D03*
%TD*%
D15*
%TO.P,SW1,1,1*%
%TO.N,Net-(R1-Pad2)*%
X199949000Y-121330000D03*
X193449000Y-121330000D03*
%TO.P,SW1,2,2*%
%TO.N,Net-(A2-GND)*%
X199949000Y-116830000D03*
X193449000Y-116830000D03*
%TD*%
D16*
%TO.P,R1,1*%
%TO.N,Net-(U3-IO5)*%
X199949000Y-109925000D03*
%TO.P,R1,2*%
%TO.N,Net-(R1-Pad2)*%
X199949000Y-111825000D03*
%TD*%
D17*
%TO.P,BZ1,1,+*%
%TO.N,Net-(BZ1-+)*%
X117000000Y-78200000D03*
D15*
%TO.P,BZ1,2,-*%
%TO.N,Net-(A1-GND)*%
X117000000Y-85800000D03*
%TD*%
D18*
%TO.P,A2,1,SDA*%
%TO.N,Net-(A2-SDA)*%
X158799000Y-98220000D03*
D19*
%TO.P,A2,2,SCK*%
%TO.N,Net-(A2-SCK)*%
X158799000Y-95680000D03*
%TO.P,A2,3,MOSI*%
%TO.N,Net-(A2-MOSI)*%
X158799000Y-93140000D03*
%TO.P,A2,4,MISO*%
%TO.N,Net-(A2-MISO)*%
X158799000Y-90600000D03*
%TO.P,A2,5,IRA*%
%TO.N,unconnected-(A2-IRA-Pad5)*%
X158799000Y-88060000D03*
%TO.P,A2,6,GND*%
%TO.N,Net-(A2-GND)*%
X158799000Y-85520000D03*
%TO.P,A2,7,RST*%
%TO.N,unconnected-(A2-RST-Pad7)*%
X158799000Y-82980000D03*
%TO.P,A2,8,3.3V*%
%TO.N,Net-(A2-3.3V)*%
X158799000Y-80440000D03*
%TD*%
D18*
%TO.P,A1,1,VCC*%
%TO.N,Net-(A1-VCC)*%
X116500000Y-93920000D03*
D19*
%TO.P,A1,2,GND*%
%TO.N,Net-(A1-GND)*%
X116500000Y-96460000D03*
%TO.P,A1,3,SCL*%
%TO.N,Net-(A1-SCL)*%
X116500000Y-99000000D03*
%TO.P,A1,4,SDA*%
%TO.N,Net-(A1-SDA)*%
X116500000Y-101540000D03*
%TO.P,A1,5,XDA*%
%TO.N,unconnected-(A1-XDA-Pad5)*%
X116500000Y-104080000D03*
%TO.P,A1,6,XCL*%
%TO.N,unconnected-(A1-XCL-Pad6)*%
X116500000Y-106620000D03*
%TO.P,A1,7,AD0*%
%TO.N,unconnected-(A1-AD0-Pad7)*%
X116500000Y-109160000D03*
%TO.P,A1,8,INT*%
%TO.N,unconnected-(A1-INT-Pad8)*%
X116500000Y-111700000D03*
%TD*%
D20*
%TO.N,Net-(A1-GND)*%
X108000000Y-92500000D03*
%TO.N,Net-(A2-GND)*%
X194449000Y-78830000D03*
%TD*%
D21*
%TO.N,Net-(A1-GND)*%
X107920000Y-87010000D02*
X107920000Y-92420000D01*
X107920000Y-92420000D02*
X108000000Y-92500000D01*
%TO.N,Net-(U2-5V-Pad13)*%
X102840000Y-109870000D02*
X105380000Y-109870000D01*
%TO.N,Net-(A1-GND)*%
X85060000Y-109870000D02*
X86111000Y-108819000D01*
X86111000Y-108819000D02*
X89089000Y-108819000D01*
X89089000Y-108819000D02*
X90140000Y-109870000D01*
%TO.N,Net-(A1-VCC)*%
X74900000Y-109870000D02*
X77440000Y-109870000D01*
%TO.N,Net-(A1-GND)*%
X72360000Y-109870000D02*
X73411000Y-110921000D01*
X73411000Y-110921000D02*
X84009000Y-110921000D01*
X84009000Y-110921000D02*
X85060000Y-109870000D01*
X116500000Y-96460000D02*
X107920000Y-87880000D01*
X107920000Y-87880000D02*
X107920000Y-87010000D01*
%TO.N,Net-(A1-SCL)*%
X116500000Y-99000000D02*
X104670000Y-99000000D01*
X104670000Y-99000000D02*
X92680000Y-87010000D01*
%TO.N,Net-(A1-SDA)*%
X90140000Y-87010000D02*
X90140000Y-91140000D01*
X90140000Y-91140000D02*
X100540000Y-101540000D01*
X100540000Y-101540000D02*
X116500000Y-101540000D01*
%TO.N,Net-(U1-DATA)*%
X97460000Y-78000000D02*
X89501000Y-85959000D01*
X89501000Y-85959000D02*
X83571000Y-85959000D01*
X83571000Y-85959000D02*
X82520000Y-87010000D01*
%TO.N,Net-(A1-VCC)*%
X94920000Y-78000000D02*
X94719000Y-77799000D01*
X94719000Y-77799000D02*
X74661000Y-77799000D01*
X74661000Y-77799000D02*
X73460000Y-79000000D01*
%TO.N,Net-(A2-GND)*%
X192309000Y-101190000D02*
X194449000Y-103330000D01*
X194449000Y-106670000D02*
X192309000Y-108810000D01*
X194449000Y-103330000D02*
X194449000Y-106670000D01*
X192309000Y-88490000D02*
X193360000Y-89541000D01*
X193360000Y-89541000D02*
X193360000Y-100139000D01*
X193360000Y-100139000D02*
X192309000Y-101190000D01*
X192309000Y-80870000D02*
X193360000Y-81921000D01*
X193360000Y-81921000D02*
X193360000Y-87439000D01*
X193360000Y-87439000D02*
X192309000Y-88490000D01*
X194449000Y-75390000D02*
X194449000Y-78830000D01*
X192309000Y-73250000D02*
X194449000Y-75390000D01*
%TO.N,Net-(A2-3.3V)*%
X200449000Y-78790000D02*
X199549000Y-79690000D01*
X199549000Y-79690000D02*
X170809000Y-79690000D01*
X170809000Y-79690000D02*
X169449000Y-78330000D01*
%TO.N,Net-(A2-SDA)*%
X158799000Y-98220000D02*
X160263000Y-96756000D01*
X160263000Y-92596000D02*
X169449000Y-83410000D01*
X160263000Y-96756000D02*
X160263000Y-92596000D01*
%TO.N,Net-(A2-SCK)*%
X158799000Y-95680000D02*
X159862000Y-94617000D01*
X159862000Y-90457000D02*
X169449000Y-80870000D01*
X159862000Y-94617000D02*
X159862000Y-90457000D01*
%TD*%
M02*
