M48
; DRILL file {KiCad 9.0.6} date 2026-02-08T09:45:16+0530
; FORMAT={-:-/ absolute / metric / decimal}
; #@! TF.CreationDate,2026-02-08T09:45:16+05:30
; #@! TF.GenerationSoftware,Kicad,Pcbnew,9.0.6
; #@! TF.FileFunction,Plated,1,2,PTH
FMAT,2
METRIC
; #@! TA.AperFunction,Plated,PTH,ViaDrill
T1C0.300
; #@! TA.AperFunction,Plated,PTH,ComponentDrill
T2C0.700
; #@! TA.AperFunction,Plated,PTH,ComponentDrill
T3C0.762
; #@! TA.AperFunction,Plated,PTH,ComponentDrill
T4C0.800
; #@! TA.AperFunction,Plated,PTH,ComponentDrill
T5C0.900
; #@! TA.AperFunction,Plated,PTH,ComponentDrill
T6C1.000
; #@! TA.AperFunction,Plated,PTH,ComponentDrill
T7C1.100
%
G90
G05
T1
X108.0Y-92.5
X194.449Y-78.83
T2
X199.949Y-109.925
X199.949Y-111.825
T3
X116.5Y-93.92
X116.5Y-96.46
X116.5Y-99.0
X116.5Y-101.54
X116.5Y-104.08
X116.5Y-106.62
X116.5Y-109.16
X116.5Y-111.7
X158.799Y-80.44
X158.799Y-82.98
X158.799Y-85.52
X158.799Y-88.06
X158.799Y-90.6
X158.799Y-93.14
X158.799Y-95.68
X158.799Y-98.22
T4
X94.92Y-78.0
X97.46Y-78.0
X100.0Y-78.0
X102.54Y-78.0
T5
X70.92Y-79.0
X72.36Y-87.01
X72.36Y-109.87
X73.46Y-79.0
X74.9Y-87.01
X74.9Y-109.87
X76.0Y-79.0
X77.44Y-87.01
X77.44Y-109.87
X79.98Y-87.01
X79.98Y-109.87
X82.52Y-87.01
X82.52Y-109.87
X85.06Y-87.01
X85.06Y-109.87
X87.6Y-87.01
X87.6Y-109.87
X90.14Y-87.01
X90.14Y-109.87
X92.68Y-87.01
X92.68Y-109.87
X95.22Y-87.01
X95.22Y-109.87
X97.76Y-87.01
X97.76Y-109.87
X100.3Y-87.01
X100.3Y-109.87
X102.84Y-87.01
X102.84Y-109.87
X105.38Y-87.01
X105.38Y-109.87
X107.92Y-87.01
X107.92Y-109.87
X169.449Y-73.25
X169.449Y-75.79
X169.449Y-78.33
X169.449Y-80.87
X169.449Y-83.41
X169.449Y-85.95
X169.449Y-88.49
X169.449Y-91.03
X169.449Y-93.57
X169.449Y-96.11
X169.449Y-98.65
X169.449Y-101.19
X169.449Y-103.73
X169.449Y-106.27
X169.449Y-108.81
X192.309Y-73.25
X192.309Y-75.79
X192.309Y-78.33
X192.309Y-80.87
X192.309Y-83.41
X192.309Y-85.95
X192.309Y-88.49
X192.309Y-91.03
X192.309Y-93.57
X192.309Y-96.11
X192.309Y-98.65
X192.309Y-101.19
X192.309Y-103.73
X192.309Y-106.27
X192.309Y-108.81
X200.449Y-78.79
X200.449Y-81.33
X200.449Y-83.87
T6
X117.0Y-78.2
X117.0Y-85.8
T7
X193.449Y-116.83
X193.449Y-121.33
X199.949Y-116.83
X199.949Y-121.33
M30
